# xmcd
#
# Track frame offsets:
#	150
#	15687
#	31665
#	51167
#	68787
#	86812
#	102187
#	117192
#	134627
#	149224
#	167397
#	179172
#	194522
#	212112
#	226335
#	243397
#	263105
#	282097
#	308489
#	330579
#
# Disc length: 4621 seconds
#
# Revision: 1
# Processed by: cddbd v1.4PL0 Copyright (c) Steve Scherf et al.
# Submitted via: audiograbber 1.80
#
DISCID=26120b14
DTITLE=Kylie Minogue - The Best 2001
DYEAR=1900
DGENRE=
TTITLE0=Spinning around
TTITLE1=On a night like this
TTITLE2=Kids
TTITLE3=Where the wild roses grow
TTITLE4=Especially for you
TTITLE5=I should be so lucky
TTITLE6=Got to be certain
TTITLE7=Hand on your heart
TTITLE8=The Loco-motion
TTITLE9=Je ne sais pourquoi
TTITLE10=Tears on my pillow
TTITLE11=Never too late
TTITLE12=Better the devil you know
TTITLE13=If you were with me now
TTITLE14=What kind of fool
TTITLE15=Did it again
TTITLE16=Some kind of bliss
TTITLE17=Confide in me
TTITLE18=Put yourself in my place
TTITLE19=Your disco needs you
EXTD=
EXTT0=
EXTT1=
EXTT2=
EXTT3=
EXTT4=
EXTT5=
EXTT6=
EXTT7=
EXTT8=
EXTT9=
EXTT10=
EXTT11=
EXTT12=
EXTT13=
EXTT14=
EXTT15=
EXTT16=
EXTT17=
EXTT18=
EXTT19=
PLAYORDER=
